<mxfile host="app.diagrams.net" agent="Mozilla/5.0 (Windows NT 10.0; Win64; x64) AppleWebKit/537.36 (KHTML, like Gecko) Chrome/139.0.0.0 Safari/537.36 Edg/139.0.0.0" version="28.1.0">
  <diagram name="第 1 页" id="02C8yGtnjhO-gYUigmYs">
    <mxGraphModel dx="2058" dy="2281" grid="1" gridSize="10" guides="1" tooltips="1" connect="1" arrows="1" fold="1" page="1" pageScale="1" pageWidth="827" pageHeight="1169" math="0" shadow="0">
      <root>
        <mxCell id="0" />
        <mxCell id="1" parent="0" />
        <mxCell id="QpEjH5OwyhMS9RFJxDmp-2" style="edgeStyle=orthogonalEdgeStyle;rounded=0;orthogonalLoop=1;jettySize=auto;html=1;exitX=0.5;exitY=1;exitDx=0;exitDy=0;entryX=0;entryY=0.5;entryDx=0;entryDy=0;" parent="1" source="JrDR6b7AXKvNzVMpYLkq-1" target="QpEjH5OwyhMS9RFJxDmp-1" edge="1">
          <mxGeometry relative="1" as="geometry" />
        </mxCell>
        <mxCell id="l4u7dqUQHjei8MqsUrmP-2" style="edgeStyle=orthogonalEdgeStyle;rounded=0;orthogonalLoop=1;jettySize=auto;html=1;exitX=0.5;exitY=1;exitDx=0;exitDy=0;entryX=0;entryY=0.5;entryDx=0;entryDy=0;" parent="1" source="JrDR6b7AXKvNzVMpYLkq-1" target="l4u7dqUQHjei8MqsUrmP-1" edge="1">
          <mxGeometry relative="1" as="geometry" />
        </mxCell>
        <mxCell id="l4u7dqUQHjei8MqsUrmP-25" style="edgeStyle=orthogonalEdgeStyle;rounded=0;orthogonalLoop=1;jettySize=auto;html=1;exitX=0.5;exitY=0;exitDx=0;exitDy=0;entryX=0;entryY=0.5;entryDx=0;entryDy=0;" parent="1" source="JrDR6b7AXKvNzVMpYLkq-1" target="5JkC0H6b_TjoU29ZHpFD-1" edge="1">
          <mxGeometry relative="1" as="geometry" />
        </mxCell>
        <mxCell id="l4u7dqUQHjei8MqsUrmP-26" style="edgeStyle=orthogonalEdgeStyle;rounded=0;orthogonalLoop=1;jettySize=auto;html=1;exitX=0.5;exitY=0;exitDx=0;exitDy=0;entryX=0;entryY=0.5;entryDx=0;entryDy=0;" parent="1" source="JrDR6b7AXKvNzVMpYLkq-1" target="JrDR6b7AXKvNzVMpYLkq-2" edge="1">
          <mxGeometry relative="1" as="geometry" />
        </mxCell>
        <mxCell id="JrDR6b7AXKvNzVMpYLkq-1" value="服务治理" style="rounded=0;whiteSpace=wrap;html=1;" parent="1" vertex="1">
          <mxGeometry x="100" y="670" width="120" height="60" as="geometry" />
        </mxCell>
        <mxCell id="JrDR6b7AXKvNzVMpYLkq-2" value="白名单控制" style="rounded=0;whiteSpace=wrap;html=1;" parent="1" vertex="1">
          <mxGeometry x="590" y="110" width="120" height="60" as="geometry" />
        </mxCell>
        <mxCell id="JrDR6b7AXKvNzVMpYLkq-14" style="edgeStyle=orthogonalEdgeStyle;rounded=0;orthogonalLoop=1;jettySize=auto;html=1;exitX=1;exitY=0.5;exitDx=0;exitDy=0;" parent="1" source="JrDR6b7AXKvNzVMpYLkq-4" target="JrDR6b7AXKvNzVMpYLkq-13" edge="1">
          <mxGeometry relative="1" as="geometry" />
        </mxCell>
        <mxCell id="JrDR6b7AXKvNzVMpYLkq-15" value="加载" style="edgeLabel;html=1;align=center;verticalAlign=middle;resizable=0;points=[];" parent="JrDR6b7AXKvNzVMpYLkq-14" vertex="1" connectable="0">
          <mxGeometry x="-0.2317" y="-1" relative="1" as="geometry">
            <mxPoint as="offset" />
          </mxGeometry>
        </mxCell>
        <mxCell id="JrDR6b7AXKvNzVMpYLkq-24" style="edgeStyle=orthogonalEdgeStyle;rounded=0;orthogonalLoop=1;jettySize=auto;html=1;exitX=0.5;exitY=1;exitDx=0;exitDy=0;entryX=0.5;entryY=1;entryDx=0;entryDy=0;dashed=1;dashPattern=8 8;" parent="1" source="JrDR6b7AXKvNzVMpYLkq-4" target="JrDR6b7AXKvNzVMpYLkq-21" edge="1">
          <mxGeometry relative="1" as="geometry" />
        </mxCell>
        <mxCell id="JrDR6b7AXKvNzVMpYLkq-4" value="白名单中间件" style="rounded=0;whiteSpace=wrap;html=1;" parent="1" vertex="1">
          <mxGeometry x="810" y="110" width="120" height="60" as="geometry" />
        </mxCell>
        <mxCell id="JrDR6b7AXKvNzVMpYLkq-7" value="本地文件" style="shape=cylinder3;whiteSpace=wrap;html=1;boundedLbl=1;backgroundOutline=1;size=15;" parent="1" vertex="1">
          <mxGeometry x="770" y="-60" width="60" height="80" as="geometry" />
        </mxCell>
        <mxCell id="JrDR6b7AXKvNzVMpYLkq-8" value="注册中心" style="ellipse;shape=cloud;whiteSpace=wrap;html=1;" parent="1" vertex="1">
          <mxGeometry x="880" y="-60" width="120" height="80" as="geometry" />
        </mxCell>
        <mxCell id="JrDR6b7AXKvNzVMpYLkq-10" style="edgeStyle=orthogonalEdgeStyle;rounded=0;orthogonalLoop=1;jettySize=auto;html=1;exitX=0.5;exitY=0;exitDx=0;exitDy=0;entryX=0.5;entryY=1;entryDx=0;entryDy=0;entryPerimeter=0;" parent="1" source="JrDR6b7AXKvNzVMpYLkq-4" target="JrDR6b7AXKvNzVMpYLkq-7" edge="1">
          <mxGeometry relative="1" as="geometry" />
        </mxCell>
        <mxCell id="JrDR6b7AXKvNzVMpYLkq-11" style="edgeStyle=orthogonalEdgeStyle;rounded=0;orthogonalLoop=1;jettySize=auto;html=1;exitX=0.5;exitY=0;exitDx=0;exitDy=0;entryX=0.55;entryY=0.95;entryDx=0;entryDy=0;entryPerimeter=0;" parent="1" source="JrDR6b7AXKvNzVMpYLkq-4" target="JrDR6b7AXKvNzVMpYLkq-8" edge="1">
          <mxGeometry relative="1" as="geometry" />
        </mxCell>
        <mxCell id="JrDR6b7AXKvNzVMpYLkq-12" value="读取白名单配置" style="edgeLabel;html=1;align=center;verticalAlign=middle;resizable=0;points=[];" parent="JrDR6b7AXKvNzVMpYLkq-11" vertex="1" connectable="0">
          <mxGeometry x="-0.7345" relative="1" as="geometry">
            <mxPoint as="offset" />
          </mxGeometry>
        </mxCell>
        <mxCell id="JrDR6b7AXKvNzVMpYLkq-17" style="edgeStyle=orthogonalEdgeStyle;rounded=0;orthogonalLoop=1;jettySize=auto;html=1;exitX=1;exitY=0.5;exitDx=0;exitDy=0;entryX=0;entryY=0.5;entryDx=0;entryDy=0;" parent="1" source="JrDR6b7AXKvNzVMpYLkq-13" target="JrDR6b7AXKvNzVMpYLkq-16" edge="1">
          <mxGeometry relative="1" as="geometry" />
        </mxCell>
        <mxCell id="JrDR6b7AXKvNzVMpYLkq-13" value="SpringBoot工程" style="rounded=0;whiteSpace=wrap;html=1;" parent="1" vertex="1">
          <mxGeometry x="1020" y="110" width="120" height="60" as="geometry" />
        </mxCell>
        <mxCell id="JrDR6b7AXKvNzVMpYLkq-22" style="edgeStyle=orthogonalEdgeStyle;rounded=0;orthogonalLoop=1;jettySize=auto;html=1;exitX=1;exitY=0.5;exitDx=0;exitDy=0;" parent="1" source="JrDR6b7AXKvNzVMpYLkq-16" target="JrDR6b7AXKvNzVMpYLkq-21" edge="1">
          <mxGeometry relative="1" as="geometry" />
        </mxCell>
        <mxCell id="JrDR6b7AXKvNzVMpYLkq-23" value="2 切面技术" style="edgeLabel;html=1;align=center;verticalAlign=middle;resizable=0;points=[];" parent="JrDR6b7AXKvNzVMpYLkq-22" vertex="1" connectable="0">
          <mxGeometry x="-0.1683" y="-1" relative="1" as="geometry">
            <mxPoint as="offset" />
          </mxGeometry>
        </mxCell>
        <mxCell id="JrDR6b7AXKvNzVMpYLkq-16" value="自定义注解&lt;div&gt;方法&lt;/div&gt;" style="rounded=0;whiteSpace=wrap;html=1;" parent="1" vertex="1">
          <mxGeometry x="1210" y="110" width="120" height="60" as="geometry" />
        </mxCell>
        <mxCell id="JrDR6b7AXKvNzVMpYLkq-19" style="edgeStyle=orthogonalEdgeStyle;rounded=0;orthogonalLoop=1;jettySize=auto;html=1;exitX=0.5;exitY=1;exitDx=0;exitDy=0;entryX=0.5;entryY=0;entryDx=0;entryDy=0;" parent="1" edge="1">
          <mxGeometry relative="1" as="geometry">
            <mxPoint x="1271" y="20" as="sourcePoint" />
            <mxPoint x="1271" y="110" as="targetPoint" />
          </mxGeometry>
        </mxCell>
        <mxCell id="JrDR6b7AXKvNzVMpYLkq-20" value="1 用户发起请求" style="edgeLabel;html=1;align=center;verticalAlign=middle;resizable=0;points=[];" parent="JrDR6b7AXKvNzVMpYLkq-19" vertex="1" connectable="0">
          <mxGeometry x="0.4222" y="-2" relative="1" as="geometry">
            <mxPoint as="offset" />
          </mxGeometry>
        </mxCell>
        <mxCell id="JrDR6b7AXKvNzVMpYLkq-18" value="用户访问" style="rounded=1;whiteSpace=wrap;html=1;" parent="1" vertex="1">
          <mxGeometry x="1210" y="-40" width="120" height="60" as="geometry" />
        </mxCell>
        <mxCell id="JrDR6b7AXKvNzVMpYLkq-26" style="edgeStyle=orthogonalEdgeStyle;rounded=0;orthogonalLoop=1;jettySize=auto;html=1;exitX=0.5;exitY=0;exitDx=0;exitDy=0;entryX=0.5;entryY=1;entryDx=0;entryDy=0;" parent="1" source="JrDR6b7AXKvNzVMpYLkq-21" target="JrDR6b7AXKvNzVMpYLkq-25" edge="1">
          <mxGeometry relative="1" as="geometry" />
        </mxCell>
        <mxCell id="JrDR6b7AXKvNzVMpYLkq-27" value="3 存在key且非白名单用户" style="edgeLabel;html=1;align=center;verticalAlign=middle;resizable=0;points=[];" parent="JrDR6b7AXKvNzVMpYLkq-26" vertex="1" connectable="0">
          <mxGeometry x="0.0095" y="3" relative="1" as="geometry">
            <mxPoint as="offset" />
          </mxGeometry>
        </mxCell>
        <mxCell id="JrDR6b7AXKvNzVMpYLkq-29" style="edgeStyle=orthogonalEdgeStyle;rounded=0;orthogonalLoop=1;jettySize=auto;html=1;exitX=1;exitY=0.5;exitDx=0;exitDy=0;entryX=0;entryY=0.5;entryDx=0;entryDy=0;" parent="1" source="JrDR6b7AXKvNzVMpYLkq-21" target="JrDR6b7AXKvNzVMpYLkq-28" edge="1">
          <mxGeometry relative="1" as="geometry" />
        </mxCell>
        <mxCell id="JrDR6b7AXKvNzVMpYLkq-30" value="3 白名单用户或不存在key" style="edgeLabel;html=1;align=center;verticalAlign=middle;resizable=0;points=[];" parent="JrDR6b7AXKvNzVMpYLkq-29" vertex="1" connectable="0">
          <mxGeometry x="-0.3714" y="-2" relative="1" as="geometry">
            <mxPoint x="26" y="8" as="offset" />
          </mxGeometry>
        </mxCell>
        <mxCell id="JrDR6b7AXKvNzVMpYLkq-21" value="DoJoinPoint类&lt;div&gt;开始处理&lt;/div&gt;" style="rounded=0;whiteSpace=wrap;html=1;" parent="1" vertex="1">
          <mxGeometry x="1420" y="110" width="120" height="60" as="geometry" />
        </mxCell>
        <mxCell id="JrDR6b7AXKvNzVMpYLkq-25" value="自定义注解&lt;div&gt;returnJson()&lt;/div&gt;" style="rounded=0;whiteSpace=wrap;html=1;" parent="1" vertex="1">
          <mxGeometry x="1420" y="-40" width="120" height="60" as="geometry" />
        </mxCell>
        <mxCell id="JrDR6b7AXKvNzVMpYLkq-28" value="放行&lt;div&gt;jp.proceed()&lt;/div&gt;" style="rounded=0;whiteSpace=wrap;html=1;" parent="1" vertex="1">
          <mxGeometry x="1680" y="110" width="120" height="60" as="geometry" />
        </mxCell>
        <mxCell id="5JkC0H6b_TjoU29ZHpFD-1" value="超时熔断" style="rounded=0;whiteSpace=wrap;html=1;" parent="1" vertex="1">
          <mxGeometry x="590" y="500" width="120" height="60" as="geometry" />
        </mxCell>
        <mxCell id="5JkC0H6b_TjoU29ZHpFD-5" style="edgeStyle=orthogonalEdgeStyle;rounded=0;orthogonalLoop=1;jettySize=auto;html=1;exitX=1;exitY=0.5;exitDx=0;exitDy=0;entryX=0;entryY=0.5;entryDx=0;entryDy=0;" parent="1" source="5JkC0H6b_TjoU29ZHpFD-3" target="5JkC0H6b_TjoU29ZHpFD-4" edge="1">
          <mxGeometry relative="1" as="geometry" />
        </mxCell>
        <mxCell id="5JkC0H6b_TjoU29ZHpFD-6" value="加载" style="edgeLabel;html=1;align=center;verticalAlign=middle;resizable=0;points=[];" parent="5JkC0H6b_TjoU29ZHpFD-5" vertex="1" connectable="0">
          <mxGeometry x="-0.0889" y="-2" relative="1" as="geometry">
            <mxPoint as="offset" />
          </mxGeometry>
        </mxCell>
        <mxCell id="5JkC0H6b_TjoU29ZHpFD-19" style="edgeStyle=orthogonalEdgeStyle;rounded=0;orthogonalLoop=1;jettySize=auto;html=1;exitX=0.5;exitY=1;exitDx=0;exitDy=0;entryX=0.5;entryY=1;entryDx=0;entryDy=0;dashed=1;dashPattern=8 8;" parent="1" source="5JkC0H6b_TjoU29ZHpFD-3" target="5JkC0H6b_TjoU29ZHpFD-15" edge="1">
          <mxGeometry relative="1" as="geometry" />
        </mxCell>
        <mxCell id="5JkC0H6b_TjoU29ZHpFD-3" value="超时熔断中间件" style="rounded=0;whiteSpace=wrap;html=1;" parent="1" vertex="1">
          <mxGeometry x="810" y="500" width="120" height="60" as="geometry" />
        </mxCell>
        <mxCell id="5JkC0H6b_TjoU29ZHpFD-11" style="edgeStyle=orthogonalEdgeStyle;rounded=0;orthogonalLoop=1;jettySize=auto;html=1;exitX=1;exitY=0.5;exitDx=0;exitDy=0;entryX=0;entryY=0.5;entryDx=0;entryDy=0;" parent="1" source="5JkC0H6b_TjoU29ZHpFD-4" target="5JkC0H6b_TjoU29ZHpFD-10" edge="1">
          <mxGeometry relative="1" as="geometry" />
        </mxCell>
        <mxCell id="5JkC0H6b_TjoU29ZHpFD-4" value="SpringBoot工程" style="rounded=0;whiteSpace=wrap;html=1;" parent="1" vertex="1">
          <mxGeometry x="1020" y="500" width="120" height="60" as="geometry" />
        </mxCell>
        <mxCell id="5JkC0H6b_TjoU29ZHpFD-8" style="edgeStyle=orthogonalEdgeStyle;rounded=0;orthogonalLoop=1;jettySize=auto;html=1;exitX=0.5;exitY=1;exitDx=0;exitDy=0;" parent="1" source="5JkC0H6b_TjoU29ZHpFD-7" target="5JkC0H6b_TjoU29ZHpFD-3" edge="1">
          <mxGeometry relative="1" as="geometry" />
        </mxCell>
        <mxCell id="5JkC0H6b_TjoU29ZHpFD-9" value="包装熔断框架&lt;div&gt;屏蔽调用逻辑&lt;/div&gt;" style="edgeLabel;html=1;align=center;verticalAlign=middle;resizable=0;points=[];" parent="5JkC0H6b_TjoU29ZHpFD-8" vertex="1" connectable="0">
          <mxGeometry x="-0.05" y="-1" relative="1" as="geometry">
            <mxPoint as="offset" />
          </mxGeometry>
        </mxCell>
        <mxCell id="5JkC0H6b_TjoU29ZHpFD-7" value="Hystrix" style="rounded=1;whiteSpace=wrap;html=1;" parent="1" vertex="1">
          <mxGeometry x="810" y="360" width="120" height="60" as="geometry" />
        </mxCell>
        <mxCell id="5JkC0H6b_TjoU29ZHpFD-17" style="edgeStyle=orthogonalEdgeStyle;rounded=0;orthogonalLoop=1;jettySize=auto;html=1;exitX=1;exitY=0.5;exitDx=0;exitDy=0;entryX=0;entryY=0.5;entryDx=0;entryDy=0;" parent="1" source="5JkC0H6b_TjoU29ZHpFD-10" target="5JkC0H6b_TjoU29ZHpFD-15" edge="1">
          <mxGeometry relative="1" as="geometry" />
        </mxCell>
        <mxCell id="5JkC0H6b_TjoU29ZHpFD-18" value="2 切面技术" style="edgeLabel;html=1;align=center;verticalAlign=middle;resizable=0;points=[];" parent="5JkC0H6b_TjoU29ZHpFD-17" vertex="1" connectable="0">
          <mxGeometry x="-0.2566" y="-2" relative="1" as="geometry">
            <mxPoint as="offset" />
          </mxGeometry>
        </mxCell>
        <mxCell id="5JkC0H6b_TjoU29ZHpFD-10" value="对需要超时熔断&lt;div&gt;的方法，加上自定义注解&lt;/div&gt;" style="rounded=0;whiteSpace=wrap;html=1;" parent="1" vertex="1">
          <mxGeometry x="1220" y="500" width="120" height="60" as="geometry" />
        </mxCell>
        <mxCell id="5JkC0H6b_TjoU29ZHpFD-13" style="edgeStyle=orthogonalEdgeStyle;rounded=0;orthogonalLoop=1;jettySize=auto;html=1;exitX=0.5;exitY=1;exitDx=0;exitDy=0;" parent="1" source="5JkC0H6b_TjoU29ZHpFD-12" target="5JkC0H6b_TjoU29ZHpFD-10" edge="1">
          <mxGeometry relative="1" as="geometry" />
        </mxCell>
        <mxCell id="5JkC0H6b_TjoU29ZHpFD-14" value="1 用户发起请求" style="edgeLabel;html=1;align=center;verticalAlign=middle;resizable=0;points=[];" parent="5JkC0H6b_TjoU29ZHpFD-13" vertex="1" connectable="0">
          <mxGeometry x="-0.1" y="-1" relative="1" as="geometry">
            <mxPoint as="offset" />
          </mxGeometry>
        </mxCell>
        <mxCell id="5JkC0H6b_TjoU29ZHpFD-12" value="用户" style="rounded=1;whiteSpace=wrap;html=1;" parent="1" vertex="1">
          <mxGeometry x="1220" y="360" width="120" height="60" as="geometry" />
        </mxCell>
        <mxCell id="5JkC0H6b_TjoU29ZHpFD-21" style="edgeStyle=orthogonalEdgeStyle;rounded=0;orthogonalLoop=1;jettySize=auto;html=1;exitX=1;exitY=0.5;exitDx=0;exitDy=0;entryX=0;entryY=0.5;entryDx=0;entryDy=0;" parent="1" source="5JkC0H6b_TjoU29ZHpFD-15" target="5JkC0H6b_TjoU29ZHpFD-20" edge="1">
          <mxGeometry relative="1" as="geometry" />
        </mxCell>
        <mxCell id="5JkC0H6b_TjoU29ZHpFD-22" value="3调用熔断包装服务" style="edgeLabel;html=1;align=center;verticalAlign=middle;resizable=0;points=[];" parent="5JkC0H6b_TjoU29ZHpFD-21" vertex="1" connectable="0">
          <mxGeometry x="-0.0643" y="-4" relative="1" as="geometry">
            <mxPoint as="offset" />
          </mxGeometry>
        </mxCell>
        <mxCell id="5JkC0H6b_TjoU29ZHpFD-15" value="DoHystrixPoint&lt;div&gt;切面入口&lt;/div&gt;" style="rounded=0;whiteSpace=wrap;html=1;" parent="1" vertex="1">
          <mxGeometry x="1440" y="500" width="120" height="60" as="geometry" />
        </mxCell>
        <mxCell id="5JkC0H6b_TjoU29ZHpFD-24" style="edgeStyle=orthogonalEdgeStyle;rounded=0;orthogonalLoop=1;jettySize=auto;html=1;exitX=0.5;exitY=0;exitDx=0;exitDy=0;entryX=0.5;entryY=1;entryDx=0;entryDy=0;" parent="1" source="5JkC0H6b_TjoU29ZHpFD-20" target="5JkC0H6b_TjoU29ZHpFD-23" edge="1">
          <mxGeometry relative="1" as="geometry" />
        </mxCell>
        <mxCell id="5JkC0H6b_TjoU29ZHpFD-25" value="4 超时熔断" style="edgeLabel;html=1;align=center;verticalAlign=middle;resizable=0;points=[];" parent="5JkC0H6b_TjoU29ZHpFD-24" vertex="1" connectable="0">
          <mxGeometry x="-0.0583" y="-5" relative="1" as="geometry">
            <mxPoint as="offset" />
          </mxGeometry>
        </mxCell>
        <mxCell id="5JkC0H6b_TjoU29ZHpFD-27" style="edgeStyle=orthogonalEdgeStyle;rounded=0;orthogonalLoop=1;jettySize=auto;html=1;exitX=1;exitY=0.5;exitDx=0;exitDy=0;entryX=0;entryY=0.5;entryDx=0;entryDy=0;" parent="1" source="5JkC0H6b_TjoU29ZHpFD-20" target="5JkC0H6b_TjoU29ZHpFD-26" edge="1">
          <mxGeometry relative="1" as="geometry" />
        </mxCell>
        <mxCell id="5JkC0H6b_TjoU29ZHpFD-28" value="4 未超时" style="edgeLabel;html=1;align=center;verticalAlign=middle;resizable=0;points=[];" parent="5JkC0H6b_TjoU29ZHpFD-27" vertex="1" connectable="0">
          <mxGeometry x="-0.0567" y="-2" relative="1" as="geometry">
            <mxPoint as="offset" />
          </mxGeometry>
        </mxCell>
        <mxCell id="5JkC0H6b_TjoU29ZHpFD-20" value="HystrixValveImpl&lt;div&gt;根据注解time&lt;/div&gt;&lt;div&gt;设置超时限制&lt;/div&gt;" style="rounded=0;whiteSpace=wrap;html=1;" parent="1" vertex="1">
          <mxGeometry x="1700" y="500" width="120" height="60" as="geometry" />
        </mxCell>
        <mxCell id="5JkC0H6b_TjoU29ZHpFD-23" value="getFallBack()&lt;div&gt;返回注解的returnJson()&lt;/div&gt;" style="rounded=0;whiteSpace=wrap;html=1;" parent="1" vertex="1">
          <mxGeometry x="1700" y="360" width="120" height="60" as="geometry" />
        </mxCell>
        <mxCell id="5JkC0H6b_TjoU29ZHpFD-26" value="放行&lt;div&gt;jp.proceed()&lt;/div&gt;" style="rounded=0;whiteSpace=wrap;html=1;" parent="1" vertex="1">
          <mxGeometry x="1920" y="500" width="120" height="60" as="geometry" />
        </mxCell>
        <mxCell id="QpEjH5OwyhMS9RFJxDmp-1" value="限流" style="rounded=0;whiteSpace=wrap;html=1;" parent="1" vertex="1">
          <mxGeometry x="590" y="860" width="120" height="60" as="geometry" />
        </mxCell>
        <mxCell id="QpEjH5OwyhMS9RFJxDmp-8" style="edgeStyle=orthogonalEdgeStyle;rounded=0;orthogonalLoop=1;jettySize=auto;html=1;exitX=1;exitY=0.5;exitDx=0;exitDy=0;entryX=0;entryY=0.5;entryDx=0;entryDy=0;" parent="1" source="QpEjH5OwyhMS9RFJxDmp-3" target="QpEjH5OwyhMS9RFJxDmp-7" edge="1">
          <mxGeometry relative="1" as="geometry" />
        </mxCell>
        <mxCell id="QpEjH5OwyhMS9RFJxDmp-9" value="加载" style="edgeLabel;html=1;align=center;verticalAlign=middle;resizable=0;points=[];" parent="QpEjH5OwyhMS9RFJxDmp-8" vertex="1" connectable="0">
          <mxGeometry x="-0.1926" y="3" relative="1" as="geometry">
            <mxPoint as="offset" />
          </mxGeometry>
        </mxCell>
        <mxCell id="QpEjH5OwyhMS9RFJxDmp-18" style="edgeStyle=orthogonalEdgeStyle;rounded=0;orthogonalLoop=1;jettySize=auto;html=1;exitX=0.5;exitY=1;exitDx=0;exitDy=0;entryX=0.5;entryY=1;entryDx=0;entryDy=0;dashed=1;dashPattern=8 8;" parent="1" source="QpEjH5OwyhMS9RFJxDmp-3" target="QpEjH5OwyhMS9RFJxDmp-15" edge="1">
          <mxGeometry relative="1" as="geometry" />
        </mxCell>
        <mxCell id="QpEjH5OwyhMS9RFJxDmp-3" value="限流中间件" style="rounded=0;whiteSpace=wrap;html=1;" parent="1" vertex="1">
          <mxGeometry x="810" y="860" width="120" height="60" as="geometry" />
        </mxCell>
        <mxCell id="QpEjH5OwyhMS9RFJxDmp-5" style="edgeStyle=orthogonalEdgeStyle;rounded=0;orthogonalLoop=1;jettySize=auto;html=1;exitX=0.5;exitY=1;exitDx=0;exitDy=0;entryX=0.5;entryY=0;entryDx=0;entryDy=0;" parent="1" source="QpEjH5OwyhMS9RFJxDmp-4" target="QpEjH5OwyhMS9RFJxDmp-3" edge="1">
          <mxGeometry relative="1" as="geometry" />
        </mxCell>
        <mxCell id="QpEjH5OwyhMS9RFJxDmp-6" value="包装限流处理逻辑" style="edgeLabel;html=1;align=center;verticalAlign=middle;resizable=0;points=[];" parent="QpEjH5OwyhMS9RFJxDmp-5" vertex="1" connectable="0">
          <mxGeometry x="-0.1148" y="-2" relative="1" as="geometry">
            <mxPoint as="offset" />
          </mxGeometry>
        </mxCell>
        <mxCell id="QpEjH5OwyhMS9RFJxDmp-4" value="构造线程安全的Map&lt;div&gt;存储速率限制器&lt;/div&gt;" style="rounded=1;whiteSpace=wrap;html=1;" parent="1" vertex="1">
          <mxGeometry x="810" y="710" width="120" height="60" as="geometry" />
        </mxCell>
        <mxCell id="QpEjH5OwyhMS9RFJxDmp-14" style="edgeStyle=orthogonalEdgeStyle;rounded=0;orthogonalLoop=1;jettySize=auto;html=1;exitX=1;exitY=0.5;exitDx=0;exitDy=0;entryX=0;entryY=0.5;entryDx=0;entryDy=0;" parent="1" source="QpEjH5OwyhMS9RFJxDmp-7" target="QpEjH5OwyhMS9RFJxDmp-10" edge="1">
          <mxGeometry relative="1" as="geometry" />
        </mxCell>
        <mxCell id="QpEjH5OwyhMS9RFJxDmp-7" value="SpringBoot工程" style="rounded=0;whiteSpace=wrap;html=1;" parent="1" vertex="1">
          <mxGeometry x="1020" y="860" width="120" height="60" as="geometry" />
        </mxCell>
        <mxCell id="QpEjH5OwyhMS9RFJxDmp-16" style="edgeStyle=orthogonalEdgeStyle;rounded=0;orthogonalLoop=1;jettySize=auto;html=1;exitX=1;exitY=0.5;exitDx=0;exitDy=0;" parent="1" source="QpEjH5OwyhMS9RFJxDmp-10" target="QpEjH5OwyhMS9RFJxDmp-15" edge="1">
          <mxGeometry relative="1" as="geometry" />
        </mxCell>
        <mxCell id="QpEjH5OwyhMS9RFJxDmp-17" value="2 切面" style="edgeLabel;html=1;align=center;verticalAlign=middle;resizable=0;points=[];" parent="QpEjH5OwyhMS9RFJxDmp-16" vertex="1" connectable="0">
          <mxGeometry x="-0.2222" y="2" relative="1" as="geometry">
            <mxPoint as="offset" />
          </mxGeometry>
        </mxCell>
        <mxCell id="QpEjH5OwyhMS9RFJxDmp-10" value="在需要限流的方法上加上自定义注解" style="rounded=0;whiteSpace=wrap;html=1;" parent="1" vertex="1">
          <mxGeometry x="1210" y="860" width="120" height="60" as="geometry" />
        </mxCell>
        <mxCell id="QpEjH5OwyhMS9RFJxDmp-12" style="edgeStyle=orthogonalEdgeStyle;rounded=0;orthogonalLoop=1;jettySize=auto;html=1;exitX=0.5;exitY=1;exitDx=0;exitDy=0;" parent="1" source="QpEjH5OwyhMS9RFJxDmp-11" target="QpEjH5OwyhMS9RFJxDmp-10" edge="1">
          <mxGeometry relative="1" as="geometry" />
        </mxCell>
        <mxCell id="QpEjH5OwyhMS9RFJxDmp-13" value="1 发起请求" style="edgeLabel;html=1;align=center;verticalAlign=middle;resizable=0;points=[];" parent="QpEjH5OwyhMS9RFJxDmp-12" vertex="1" connectable="0">
          <mxGeometry x="-0.1148" y="2" relative="1" as="geometry">
            <mxPoint as="offset" />
          </mxGeometry>
        </mxCell>
        <mxCell id="QpEjH5OwyhMS9RFJxDmp-11" value="用户" style="rounded=1;whiteSpace=wrap;html=1;" parent="1" vertex="1">
          <mxGeometry x="1210" y="710" width="120" height="60" as="geometry" />
        </mxCell>
        <mxCell id="QpEjH5OwyhMS9RFJxDmp-20" style="edgeStyle=orthogonalEdgeStyle;rounded=0;orthogonalLoop=1;jettySize=auto;html=1;exitX=1;exitY=0.5;exitDx=0;exitDy=0;entryX=0;entryY=0.5;entryDx=0;entryDy=0;" parent="1" source="QpEjH5OwyhMS9RFJxDmp-15" target="QpEjH5OwyhMS9RFJxDmp-19" edge="1">
          <mxGeometry relative="1" as="geometry" />
        </mxCell>
        <mxCell id="QpEjH5OwyhMS9RFJxDmp-21" value="3 调用限流服务" style="edgeLabel;html=1;align=center;verticalAlign=middle;resizable=0;points=[];" parent="QpEjH5OwyhMS9RFJxDmp-20" vertex="1" connectable="0">
          <mxGeometry x="-0.2982" y="-5" relative="1" as="geometry">
            <mxPoint x="10" y="-15" as="offset" />
          </mxGeometry>
        </mxCell>
        <mxCell id="QpEjH5OwyhMS9RFJxDmp-15" value="DoRateLimiterPoint&lt;div&gt;切面入口&lt;/div&gt;" style="rounded=0;whiteSpace=wrap;html=1;" parent="1" vertex="1">
          <mxGeometry x="1420" y="860" width="120" height="60" as="geometry" />
        </mxCell>
        <mxCell id="QpEjH5OwyhMS9RFJxDmp-27" style="edgeStyle=orthogonalEdgeStyle;rounded=0;orthogonalLoop=1;jettySize=auto;html=1;exitX=1;exitY=0.5;exitDx=0;exitDy=0;entryX=0;entryY=0.5;entryDx=0;entryDy=0;" parent="1" source="QpEjH5OwyhMS9RFJxDmp-19" target="QpEjH5OwyhMS9RFJxDmp-26" edge="1">
          <mxGeometry relative="1" as="geometry" />
        </mxCell>
        <mxCell id="QpEjH5OwyhMS9RFJxDmp-28" value="调用次数安全" style="edgeLabel;html=1;align=center;verticalAlign=middle;resizable=0;points=[];" parent="QpEjH5OwyhMS9RFJxDmp-27" vertex="1" connectable="0">
          <mxGeometry x="-0.0345" y="-3" relative="1" as="geometry">
            <mxPoint as="offset" />
          </mxGeometry>
        </mxCell>
        <mxCell id="QpEjH5OwyhMS9RFJxDmp-30" style="edgeStyle=orthogonalEdgeStyle;rounded=0;orthogonalLoop=1;jettySize=auto;html=1;exitX=0.5;exitY=1;exitDx=0;exitDy=0;entryX=0.5;entryY=0;entryDx=0;entryDy=0;" parent="1" source="QpEjH5OwyhMS9RFJxDmp-19" target="QpEjH5OwyhMS9RFJxDmp-29" edge="1">
          <mxGeometry relative="1" as="geometry" />
        </mxCell>
        <mxCell id="QpEjH5OwyhMS9RFJxDmp-31" value="超量" style="edgeLabel;html=1;align=center;verticalAlign=middle;resizable=0;points=[];" parent="QpEjH5OwyhMS9RFJxDmp-30" vertex="1" connectable="0">
          <mxGeometry x="-0.2" y="3" relative="1" as="geometry">
            <mxPoint as="offset" />
          </mxGeometry>
        </mxCell>
        <mxCell id="QpEjH5OwyhMS9RFJxDmp-19" value="RateLimiterValve&lt;div&gt;限流逻辑&lt;/div&gt;&lt;div&gt;加载速率限流器&lt;/div&gt;" style="rounded=0;whiteSpace=wrap;html=1;" parent="1" vertex="1">
          <mxGeometry x="1654" y="860" width="120" height="60" as="geometry" />
        </mxCell>
        <mxCell id="QpEjH5OwyhMS9RFJxDmp-24" style="edgeStyle=orthogonalEdgeStyle;rounded=0;orthogonalLoop=1;jettySize=auto;html=1;exitX=0.5;exitY=1;exitDx=0;exitDy=0;" parent="1" source="QpEjH5OwyhMS9RFJxDmp-23" target="QpEjH5OwyhMS9RFJxDmp-19" edge="1">
          <mxGeometry relative="1" as="geometry" />
        </mxCell>
        <mxCell id="QpEjH5OwyhMS9RFJxDmp-23" value="构造线程安全的Map" style="rounded=1;whiteSpace=wrap;html=1;" parent="1" vertex="1">
          <mxGeometry x="1654" y="710" width="120" height="60" as="geometry" />
        </mxCell>
        <mxCell id="QpEjH5OwyhMS9RFJxDmp-26" value="放行&lt;div&gt;jp.proceed()&lt;/div&gt;" style="rounded=0;whiteSpace=wrap;html=1;" parent="1" vertex="1">
          <mxGeometry x="1890" y="860" width="120" height="60" as="geometry" />
        </mxCell>
        <mxCell id="QpEjH5OwyhMS9RFJxDmp-29" value="返回注解的&lt;div&gt;returnJson()&lt;/div&gt;" style="rounded=0;whiteSpace=wrap;html=1;" parent="1" vertex="1">
          <mxGeometry x="1654" y="980" width="120" height="60" as="geometry" />
        </mxCell>
        <mxCell id="l4u7dqUQHjei8MqsUrmP-1" value="自定义扩展" style="rounded=0;whiteSpace=wrap;html=1;" parent="1" vertex="1">
          <mxGeometry x="590" y="1190" width="120" height="60" as="geometry" />
        </mxCell>
        <mxCell id="l4u7dqUQHjei8MqsUrmP-5" style="edgeStyle=orthogonalEdgeStyle;rounded=0;orthogonalLoop=1;jettySize=auto;html=1;exitX=1;exitY=0.5;exitDx=0;exitDy=0;entryX=0;entryY=0.5;entryDx=0;entryDy=0;" parent="1" source="l4u7dqUQHjei8MqsUrmP-3" target="l4u7dqUQHjei8MqsUrmP-4" edge="1">
          <mxGeometry relative="1" as="geometry" />
        </mxCell>
        <mxCell id="l4u7dqUQHjei8MqsUrmP-6" value="加载" style="edgeLabel;html=1;align=center;verticalAlign=middle;resizable=0;points=[];" parent="l4u7dqUQHjei8MqsUrmP-5" vertex="1" connectable="0">
          <mxGeometry x="-0.2713" y="1" relative="1" as="geometry">
            <mxPoint as="offset" />
          </mxGeometry>
        </mxCell>
        <mxCell id="l4u7dqUQHjei8MqsUrmP-3" value="扩展方法中间件" style="rounded=0;whiteSpace=wrap;html=1;" parent="1" vertex="1">
          <mxGeometry x="810" y="1190" width="120" height="60" as="geometry" />
        </mxCell>
        <mxCell id="l4u7dqUQHjei8MqsUrmP-8" style="edgeStyle=orthogonalEdgeStyle;rounded=0;orthogonalLoop=1;jettySize=auto;html=1;exitX=1;exitY=0.5;exitDx=0;exitDy=0;entryX=0;entryY=0.5;entryDx=0;entryDy=0;" parent="1" source="l4u7dqUQHjei8MqsUrmP-4" target="l4u7dqUQHjei8MqsUrmP-7" edge="1">
          <mxGeometry relative="1" as="geometry" />
        </mxCell>
        <mxCell id="l4u7dqUQHjei8MqsUrmP-4" value="SpringBoot工程" style="rounded=0;whiteSpace=wrap;html=1;" parent="1" vertex="1">
          <mxGeometry x="1020" y="1190" width="120" height="60" as="geometry" />
        </mxCell>
        <mxCell id="l4u7dqUQHjei8MqsUrmP-13" style="edgeStyle=orthogonalEdgeStyle;rounded=0;orthogonalLoop=1;jettySize=auto;html=1;exitX=1;exitY=0.5;exitDx=0;exitDy=0;entryX=0;entryY=0.5;entryDx=0;entryDy=0;" parent="1" source="l4u7dqUQHjei8MqsUrmP-7" target="l4u7dqUQHjei8MqsUrmP-12" edge="1">
          <mxGeometry relative="1" as="geometry" />
        </mxCell>
        <mxCell id="l4u7dqUQHjei8MqsUrmP-14" value="2 切面" style="edgeLabel;html=1;align=center;verticalAlign=middle;resizable=0;points=[];" parent="l4u7dqUQHjei8MqsUrmP-13" vertex="1" connectable="0">
          <mxGeometry x="-0.1544" y="1" relative="1" as="geometry">
            <mxPoint as="offset" />
          </mxGeometry>
        </mxCell>
        <mxCell id="l4u7dqUQHjei8MqsUrmP-7" value="在需要扩展的方法上加入自定义注解，同类下有同参数、返回类型扩展方法" style="rounded=0;whiteSpace=wrap;html=1;" parent="1" vertex="1">
          <mxGeometry x="1210" y="1190" width="120" height="60" as="geometry" />
        </mxCell>
        <mxCell id="l4u7dqUQHjei8MqsUrmP-10" style="edgeStyle=orthogonalEdgeStyle;rounded=0;orthogonalLoop=1;jettySize=auto;html=1;exitX=0.5;exitY=1;exitDx=0;exitDy=0;entryX=0.5;entryY=0;entryDx=0;entryDy=0;" parent="1" source="l4u7dqUQHjei8MqsUrmP-9" target="l4u7dqUQHjei8MqsUrmP-7" edge="1">
          <mxGeometry relative="1" as="geometry" />
        </mxCell>
        <mxCell id="l4u7dqUQHjei8MqsUrmP-11" value="1 发起请求" style="edgeLabel;html=1;align=center;verticalAlign=middle;resizable=0;points=[];" parent="l4u7dqUQHjei8MqsUrmP-10" vertex="1" connectable="0">
          <mxGeometry x="-0.0865" relative="1" as="geometry">
            <mxPoint as="offset" />
          </mxGeometry>
        </mxCell>
        <mxCell id="l4u7dqUQHjei8MqsUrmP-9" value="用户" style="rounded=0;whiteSpace=wrap;html=1;" parent="1" vertex="1">
          <mxGeometry x="1210" y="1040" width="120" height="60" as="geometry" />
        </mxCell>
        <mxCell id="l4u7dqUQHjei8MqsUrmP-16" style="edgeStyle=orthogonalEdgeStyle;rounded=0;orthogonalLoop=1;jettySize=auto;html=1;exitX=1;exitY=0.5;exitDx=0;exitDy=0;entryX=0;entryY=0.5;entryDx=0;entryDy=0;" parent="1" source="l4u7dqUQHjei8MqsUrmP-12" edge="1">
          <mxGeometry relative="1" as="geometry">
            <mxPoint x="1653.9999999999995" y="1220" as="targetPoint" />
          </mxGeometry>
        </mxCell>
        <mxCell id="l4u7dqUQHjei8MqsUrmP-17" value="3 调用扩展方法" style="edgeLabel;html=1;align=center;verticalAlign=middle;resizable=0;points=[];" parent="l4u7dqUQHjei8MqsUrmP-16" vertex="1" connectable="0">
          <mxGeometry x="-0.0646" y="-1" relative="1" as="geometry">
            <mxPoint as="offset" />
          </mxGeometry>
        </mxCell>
        <mxCell id="l4u7dqUQHjei8MqsUrmP-12" value="DoMethodExtPoint&lt;div&gt;切面入口&lt;/div&gt;" style="rounded=0;whiteSpace=wrap;html=1;" parent="1" vertex="1">
          <mxGeometry x="1420" y="1190" width="120" height="60" as="geometry" />
        </mxCell>
        <mxCell id="l4u7dqUQHjei8MqsUrmP-20" style="edgeStyle=orthogonalEdgeStyle;rounded=0;orthogonalLoop=1;jettySize=auto;html=1;exitX=1;exitY=0.5;exitDx=0;exitDy=0;" parent="1" source="l4u7dqUQHjei8MqsUrmP-18" target="l4u7dqUQHjei8MqsUrmP-19" edge="1">
          <mxGeometry relative="1" as="geometry" />
        </mxCell>
        <mxCell id="l4u7dqUQHjei8MqsUrmP-23" value="通过" style="edgeLabel;html=1;align=center;verticalAlign=middle;resizable=0;points=[];" parent="l4u7dqUQHjei8MqsUrmP-20" vertex="1" connectable="0">
          <mxGeometry x="-0.1591" y="-2" relative="1" as="geometry">
            <mxPoint as="offset" />
          </mxGeometry>
        </mxCell>
        <mxCell id="l4u7dqUQHjei8MqsUrmP-22" style="edgeStyle=orthogonalEdgeStyle;rounded=0;orthogonalLoop=1;jettySize=auto;html=1;exitX=0.5;exitY=1;exitDx=0;exitDy=0;" parent="1" source="l4u7dqUQHjei8MqsUrmP-18" target="l4u7dqUQHjei8MqsUrmP-21" edge="1">
          <mxGeometry relative="1" as="geometry" />
        </mxCell>
        <mxCell id="l4u7dqUQHjei8MqsUrmP-24" value="不通过" style="edgeLabel;html=1;align=center;verticalAlign=middle;resizable=0;points=[];" parent="l4u7dqUQHjei8MqsUrmP-22" vertex="1" connectable="0">
          <mxGeometry x="-0.0645" y="5" relative="1" as="geometry">
            <mxPoint as="offset" />
          </mxGeometry>
        </mxCell>
        <mxCell id="l4u7dqUQHjei8MqsUrmP-18" value="返回值" style="rhombus;whiteSpace=wrap;html=1;" parent="1" vertex="1">
          <mxGeometry x="1654" y="1190" width="120" height="60" as="geometry" />
        </mxCell>
        <mxCell id="l4u7dqUQHjei8MqsUrmP-19" value="放行&lt;div&gt;jp.proceed()&lt;/div&gt;" style="rounded=0;whiteSpace=wrap;html=1;" parent="1" vertex="1">
          <mxGeometry x="1860" y="1190" width="120" height="60" as="geometry" />
        </mxCell>
        <mxCell id="l4u7dqUQHjei8MqsUrmP-21" value="返回注解指定内容" style="rounded=0;whiteSpace=wrap;html=1;" parent="1" vertex="1">
          <mxGeometry x="1654" y="1330" width="120" height="60" as="geometry" />
        </mxCell>
        <mxCell id="EBo8RwcQ2uF_YP4D9-vQ-1" value="第三方中转站" style="rounded=0;whiteSpace=wrap;html=1;" vertex="1" parent="1">
          <mxGeometry x="1140" y="2000" width="120" height="60" as="geometry" />
        </mxCell>
        <mxCell id="EBo8RwcQ2uF_YP4D9-vQ-11" style="edgeStyle=orthogonalEdgeStyle;rounded=0;orthogonalLoop=1;jettySize=auto;html=1;exitX=1;exitY=0.5;exitDx=0;exitDy=0;" edge="1" parent="1" source="EBo8RwcQ2uF_YP4D9-vQ-2" target="EBo8RwcQ2uF_YP4D9-vQ-1">
          <mxGeometry relative="1" as="geometry" />
        </mxCell>
        <mxCell id="EBo8RwcQ2uF_YP4D9-vQ-12" value="&lt;font style=&quot;font-size: 16px;&quot;&gt;识别是我的中转站的密钥后，转发用户请求&lt;/font&gt;&lt;div&gt;&lt;font style=&quot;font-size: 16px;&quot;&gt;使用第三方url,密钥，向第三方发送请求，转发用户请求&lt;/font&gt;&lt;/div&gt;&lt;div&gt;&lt;font style=&quot;font-size: 16px;&quot;&gt;，响应后，转发给用户&lt;/font&gt;&lt;/div&gt;" style="edgeLabel;html=1;align=center;verticalAlign=middle;resizable=0;points=[];" vertex="1" connectable="0" parent="EBo8RwcQ2uF_YP4D9-vQ-11">
          <mxGeometry x="-0.6103" y="3" relative="1" as="geometry">
            <mxPoint x="124" y="3" as="offset" />
          </mxGeometry>
        </mxCell>
        <mxCell id="EBo8RwcQ2uF_YP4D9-vQ-2" value="我的中转站" style="rounded=0;whiteSpace=wrap;html=1;" vertex="1" parent="1">
          <mxGeometry x="580" y="2000" width="120" height="60" as="geometry" />
        </mxCell>
        <mxCell id="EBo8RwcQ2uF_YP4D9-vQ-7" style="edgeStyle=orthogonalEdgeStyle;rounded=0;orthogonalLoop=1;jettySize=auto;html=1;exitX=1;exitY=0.5;exitDx=0;exitDy=0;entryX=0;entryY=0.5;entryDx=0;entryDy=0;" edge="1" parent="1" source="EBo8RwcQ2uF_YP4D9-vQ-3" target="EBo8RwcQ2uF_YP4D9-vQ-2">
          <mxGeometry relative="1" as="geometry" />
        </mxCell>
        <mxCell id="EBo8RwcQ2uF_YP4D9-vQ-3" value="claude code 用户1" style="rounded=0;whiteSpace=wrap;html=1;" vertex="1" parent="1">
          <mxGeometry x="160" y="1900" width="120" height="60" as="geometry" />
        </mxCell>
        <mxCell id="EBo8RwcQ2uF_YP4D9-vQ-8" style="edgeStyle=orthogonalEdgeStyle;rounded=0;orthogonalLoop=1;jettySize=auto;html=1;exitX=1;exitY=0.5;exitDx=0;exitDy=0;" edge="1" parent="1" source="EBo8RwcQ2uF_YP4D9-vQ-4">
          <mxGeometry relative="1" as="geometry">
            <mxPoint x="540" y="2030" as="targetPoint" />
          </mxGeometry>
        </mxCell>
        <mxCell id="EBo8RwcQ2uF_YP4D9-vQ-4" value="用户2" style="rounded=0;whiteSpace=wrap;html=1;" vertex="1" parent="1">
          <mxGeometry x="160" y="2000" width="120" height="60" as="geometry" />
        </mxCell>
        <mxCell id="EBo8RwcQ2uF_YP4D9-vQ-9" style="edgeStyle=orthogonalEdgeStyle;rounded=0;orthogonalLoop=1;jettySize=auto;html=1;exitX=1;exitY=0.5;exitDx=0;exitDy=0;entryX=0;entryY=0.5;entryDx=0;entryDy=0;" edge="1" parent="1" source="EBo8RwcQ2uF_YP4D9-vQ-5" target="EBo8RwcQ2uF_YP4D9-vQ-2">
          <mxGeometry relative="1" as="geometry" />
        </mxCell>
        <mxCell id="EBo8RwcQ2uF_YP4D9-vQ-10" value="&lt;font style=&quot;font-size: 15px;&quot;&gt;我的中转站url,用户密钥&lt;/font&gt;" style="edgeLabel;html=1;align=center;verticalAlign=middle;resizable=0;points=[];" vertex="1" connectable="0" parent="EBo8RwcQ2uF_YP4D9-vQ-9">
          <mxGeometry x="0.5222" y="-1" relative="1" as="geometry">
            <mxPoint as="offset" />
          </mxGeometry>
        </mxCell>
        <mxCell id="EBo8RwcQ2uF_YP4D9-vQ-5" value="用户3" style="rounded=0;whiteSpace=wrap;html=1;" vertex="1" parent="1">
          <mxGeometry x="160" y="2100" width="120" height="60" as="geometry" />
        </mxCell>
        <mxCell id="EBo8RwcQ2uF_YP4D9-vQ-13" value="在中转站中存放第三方的url和密钥&lt;div&gt;用于转发用户请求&lt;/div&gt;" style="text;html=1;align=center;verticalAlign=middle;resizable=0;points=[];autosize=1;strokeColor=none;fillColor=none;" vertex="1" parent="1">
          <mxGeometry x="540" y="1890" width="200" height="40" as="geometry" />
        </mxCell>
        <mxCell id="EBo8RwcQ2uF_YP4D9-vQ-14" style="edgeStyle=orthogonalEdgeStyle;rounded=0;orthogonalLoop=1;jettySize=auto;html=1;exitX=0.5;exitY=0;exitDx=0;exitDy=0;entryX=0.5;entryY=0.95;entryDx=0;entryDy=0;entryPerimeter=0;" edge="1" parent="1" source="EBo8RwcQ2uF_YP4D9-vQ-2" target="EBo8RwcQ2uF_YP4D9-vQ-13">
          <mxGeometry relative="1" as="geometry" />
        </mxCell>
      </root>
    </mxGraphModel>
  </diagram>
</mxfile>
